<?xml version="1.0" encoding="UTF-8"?>
<!DOCTYPE svg PUBLIC "-//W3C//DTD SVG 1.1//EN" "http://www.w3.org/Graphics/SVG/1.1/DTD/svg11.dtd">
<svg version="1.2" width="210mm" height="297mm" viewBox="0 0 21000 29700" preserveAspectRatio="xMidYMid" fill-rule="evenodd" stroke-width="28.222" stroke-linejoin="round" xmlns="http://www.w3.org/2000/svg" xmlns:ooo="http://xml.openoffice.org/svg/export" xmlns:xlink="http://www.w3.org/1999/xlink" xmlns:presentation="http://sun.com/xmlns/staroffice/presentation" xmlns:smil="http://www.w3.org/2001/SMIL20/" xmlns:anim="urn:oasis:names:tc:opendocument:xmlns:animation:1.0" xml:space="preserve">
 <defs class="ClipPathGroup">
  <clipPath id="presentation_clip_path" clipPathUnits="userSpaceOnUse">
   <rect x="0" y="0" width="21000" height="29700"/>
  </clipPath>
  <clipPath id="presentation_clip_path_shrink" clipPathUnits="userSpaceOnUse">
   <rect x="21" y="29" width="20958" height="29641"/>
  </clipPath>
 </defs>
 <defs class="TextShapeIndex">
  <g ooo:slide="id1" ooo:id-list="id3"/>
 </defs>
 <defs class="EmbeddedBulletChars">
  <g id="bullet-char-template-57356" transform="scale(0.00048828125,-0.00048828125)">
   <path d="M 580,1141 L 1163,571 580,0 -4,571 580,1141 Z"/>
  </g>
  <g id="bullet-char-template-57354" transform="scale(0.00048828125,-0.00048828125)">
   <path d="M 8,1128 L 1137,1128 1137,0 8,0 8,1128 Z"/>
  </g>
  <g id="bullet-char-template-10146" transform="scale(0.00048828125,-0.00048828125)">
   <path d="M 174,0 L 602,739 174,1481 1456,739 174,0 Z M 1358,739 L 309,1346 659,739 1358,739 Z"/>
  </g>
  <g id="bullet-char-template-10132" transform="scale(0.00048828125,-0.00048828125)">
   <path d="M 2015,739 L 1276,0 717,0 1260,543 174,543 174,936 1260,936 717,1481 1274,1481 2015,739 Z"/>
  </g>
  <g id="bullet-char-template-10007" transform="scale(0.00048828125,-0.00048828125)">
   <path d="M 0,-2 C -7,14 -16,27 -25,37 L 356,567 C 262,823 215,952 215,954 215,979 228,992 255,992 264,992 276,990 289,987 310,991 331,999 354,1012 L 381,999 492,748 772,1049 836,1024 860,1049 C 881,1039 901,1025 922,1006 886,937 835,863 770,784 769,783 710,716 594,584 L 774,223 C 774,196 753,168 711,139 L 727,119 C 717,90 699,76 672,76 641,76 570,178 457,381 L 164,-76 C 142,-110 111,-127 72,-127 30,-127 9,-110 8,-76 1,-67 -2,-52 -2,-32 -2,-23 -1,-13 0,-2 Z"/>
  </g>
  <g id="bullet-char-template-10004" transform="scale(0.00048828125,-0.00048828125)">
   <path d="M 285,-33 C 182,-33 111,30 74,156 52,228 41,333 41,471 41,549 55,616 82,672 116,743 169,778 240,778 293,778 328,747 346,684 L 369,508 C 377,444 397,411 428,410 L 1163,1116 C 1174,1127 1196,1133 1229,1133 1271,1133 1292,1118 1292,1087 L 1292,965 C 1292,929 1282,901 1262,881 L 442,47 C 390,-6 338,-33 285,-33 Z"/>
  </g>
  <g id="bullet-char-template-9679" transform="scale(0.00048828125,-0.00048828125)">
   <path d="M 813,0 C 632,0 489,54 383,161 276,268 223,411 223,592 223,773 276,916 383,1023 489,1130 632,1184 813,1184 992,1184 1136,1130 1245,1023 1353,916 1407,772 1407,592 1407,412 1353,268 1245,161 1136,54 992,0 813,0 Z"/>
  </g>
  <g id="bullet-char-template-8226" transform="scale(0.00048828125,-0.00048828125)">
   <path d="M 346,457 C 273,457 209,483 155,535 101,586 74,649 74,723 74,796 101,859 155,911 209,963 273,989 346,989 419,989 480,963 531,910 582,859 608,796 608,723 608,648 583,586 532,535 482,483 420,457 346,457 Z"/>
  </g>
  <g id="bullet-char-template-8211" transform="scale(0.00048828125,-0.00048828125)">
   <path d="M -4,459 L 1135,459 1135,606 -4,606 -4,459 Z"/>
  </g>
  <g id="bullet-char-template-61548" transform="scale(0.00048828125,-0.00048828125)">
   <path d="M 173,740 C 173,903 231,1043 346,1159 462,1274 601,1332 765,1332 928,1332 1067,1274 1183,1159 1299,1043 1357,903 1357,740 1357,577 1299,437 1183,322 1067,206 928,148 765,148 601,148 462,206 346,322 231,437 173,577 173,740 Z"/>
  </g>
 </defs>
 <defs class="TextEmbeddedBitmaps"/>
 <g>
  <g id="id2" class="Master_Slide">
   <g id="bg-id2" class="Background"/>
   <g id="bo-id2" class="BackgroundObjects"/>
  </g>
 </g>
 <g class="SlideGroup">
  <g>
   <g id="container-id1">
    <g id="id1" class="Slide" clip-path="url(#presentation_clip_path)">
     <g class="Page">
      <g class="com.sun.star.drawing.CustomShape">
       <g id="id3">
        <rect class="BoundingBox" stroke="none" fill="none" x="1624" y="7299" width="16879" height="15004"/>
        <path fill="rgb(0,0,0)" stroke="none" d="M 5875,14815 L 5877,14942 5882,15069 5890,15196 5902,15322 5916,15448 5934,15574 5955,15699 5978,15824 6005,15948 6035,16072 6068,16194 6104,16316 6143,16437 6185,16556 6230,16675 6278,16793 6329,16909 6383,17024 6439,17138 6499,17250 6561,17361 6625,17470 6693,17577 6763,17683 6836,17787 6911,17890 6989,17990 7069,18088 7152,18185 7237,18279 7324,18371 7414,18461 7505,18549 7599,18634 7695,18717 7793,18798 7893,18876 7995,18952 8099,19025 8205,19095 8312,19163 8421,19229 8531,19291 8643,19351 8757,19408 8871,19462 8988,19513 9105,19562 9223,19607 9343,19650 9464,19689 9585,19726 9708,19759 9831,19790 9955,19817 10079,19842 10205,19863 10330,19881 10456,19896 10583,19908 10709,19917 10836,19922 10963,19925 11090,19924 11217,19920 11344,19913 11470,19903 11597,19890 11722,19874 11848,19854 11973,19832 12097,19806 12221,19777 12344,19746 12466,19711 12587,19673 12707,19632 12826,19589 12944,19542 13061,19492 13177,19440 13291,19384 13404,19326 13515,19265 13625,19202 13733,19135 13840,19066 13945,18995 14048,18920 14149,18844 14248,18764 14345,18683 14440,18599 14533,18512 14624,18424 14713,18333 14799,18240 14883,18145 14965,18047 15044,17948 15121,17847 15195,17744 15267,17639 15336,17533 15402,17424 15466,17315 15527,17203 15585,17090 15640,16976 15693,16860 15742,16744 15789,16626 15833,16506 15873,16386 15911,16265 15946,16143 15978,16020 16006,15896 16032,15772 16055,15647 16074,15522 16090,15396 16103,15269 16114,15143 16120,15016 16124,14889 16125,14762 16122,14635 16117,14508 16108,14382 16096,14255 16081,14129 16063,14004 16041,13879 16017,13754 15990,13630 15959,13507 15926,13384 15889,13263 15849,13142 15807,13023 15761,12904 15713,12787 15662,12671 15608,12556 15551,12442 15491,12330 15428,12220 15363,12111 15295,12004 15224,11898 15151,11794 15075,11693 14997,11593 14917,11495 14834,11399 14748,11305 14660,11213 14570,11123 14478,11036 14384,10951 14288,10868 14189,10788 14089,10710 13987,10635 13883,10562 13777,10492 13669,10425 13560,10360 13449,10298 13337,10239 13223,10182 13108,10129 12992,10078 12874,10030 12756,9985 12636,9943 12515,9904 12393,9868 12271,9835 12147,9805 12023,9778 11898,9754 11773,9734 11648,9716 11521,9702 11395,9690 11268,9682 11141,9677 11014,9675 10888,9676 10836,7302 11022,7300 11208,7303 11393,7310 11579,7322 11764,7339 11948,7360 12132,7386 12315,7416 12498,7451 12679,7490 12860,7534 13039,7583 13217,7635 13394,7692 13570,7754 13743,7820 13915,7890 14086,7964 14254,8043 14420,8125 14585,8212 14747,8303 14906,8398 15064,8496 15219,8599 15371,8705 15521,8816 15667,8929 15811,9047 15952,9168 16090,9292 16225,9420 16357,9551 16485,9685 16610,9823 16732,9963 16850,10107 16964,10253 17075,10402 17182,10554 17285,10708 17385,10865 17480,11025 17572,11186 17659,11350 17743,11516 17822,11684 17897,11854 17968,12026 18035,12199 18097,12374 18155,12551 18208,12729 18257,12908 18302,13088 18342,13270 18378,13452 18409,13635 18436,13819 18458,14003 18475,14188 18488,14374 18496,14559 18500,14745 18499,14931 18493,15116 18483,15302 18468,15487 18449,15672 18425,15856 18397,16040 18364,16222 18326,16404 18284,16585 18238,16765 18187,16944 18132,17121 18072,17297 18008,17472 17940,17644 17867,17815 17790,17985 17709,18152 17624,18317 17535,18480 17442,18641 17345,18799 17244,18955 17139,19108 17030,19259 16918,19407 16802,19552 16683,19694 16560,19834 16433,19970 16304,20103 16171,20233 16035,20359 15895,20482 15753,20602 15608,20717 15460,20830 15309,20938 15156,21043 15000,21144 14842,21241 14681,21335 14518,21424 14353,21509 14186,21590 14017,21667 13846,21739 13673,21808 13498,21872 13322,21931 13145,21987 12966,22038 12787,22084 12606,22126 12424,22164 12241,22197 12057,22225 11873,22249 11688,22268 11503,22283 11318,22293 11132,22299 10946,22300 10760,22296 10575,22288 10389,22275 10205,22258 10020,22236 9836,22209 9653,22178 9471,22142 9289,22102 9109,22058 8930,22009 8752,21955 8575,21897 8400,21835 8227,21768 8055,21698 7885,21623 7717,21543 7551,21460 7387,21373 7226,21281 7066,21186 6909,21086 6755,20983 6603,20876 6454,20765 6307,20651 6164,20533 6024,20411 5886,20286 5752,20158 5621,20026 5493,19891 5368,19753 5248,19612 5130,19468 5016,19322 4906,19172 4800,19020 4697,18865 4598,18707 4504,18548 4413,18386 4326,18221 4243,18055 4165,17887 4090,17716 4020,17544 3954,17371 3893,17195 3836,17019 3783,16841 3735,16661 3691,16481 3651,16299 3616,16117 3586,15933 3560,15749 3539,15565 3522,15380 3510,15194 3503,15009 3500,14823 1625,14828 4678,11756 7751,14810 5875,14815 Z M 3500,7300 L 3500,7300 Z M 18501,22301 L 18501,22301 Z"/>
        <path fill="none" stroke="rgb(52,101,164)" d="M 5875,14815 L 5877,14942 5882,15069 5890,15196 5902,15322 5916,15448 5934,15574 5955,15699 5978,15824 6005,15948 6035,16072 6068,16194 6104,16316 6143,16437 6185,16556 6230,16675 6278,16793 6329,16909 6383,17024 6439,17138 6499,17250 6561,17361 6625,17470 6693,17577 6763,17683 6836,17787 6911,17890 6989,17990 7069,18088 7152,18185 7237,18279 7324,18371 7414,18461 7505,18549 7599,18634 7695,18717 7793,18798 7893,18876 7995,18952 8099,19025 8205,19095 8312,19163 8421,19229 8531,19291 8643,19351 8757,19408 8871,19462 8988,19513 9105,19562 9223,19607 9343,19650 9464,19689 9585,19726 9708,19759 9831,19790 9955,19817 10079,19842 10205,19863 10330,19881 10456,19896 10583,19908 10709,19917 10836,19922 10963,19925 11090,19924 11217,19920 11344,19913 11470,19903 11597,19890 11722,19874 11848,19854 11973,19832 12097,19806 12221,19777 12344,19746 12466,19711 12587,19673 12707,19632 12826,19589 12944,19542 13061,19492 13177,19440 13291,19384 13404,19326 13515,19265 13625,19202 13733,19135 13840,19066 13945,18995 14048,18920 14149,18844 14248,18764 14345,18683 14440,18599 14533,18512 14624,18424 14713,18333 14799,18240 14883,18145 14965,18047 15044,17948 15121,17847 15195,17744 15267,17639 15336,17533 15402,17424 15466,17315 15527,17203 15585,17090 15640,16976 15693,16860 15742,16744 15789,16626 15833,16506 15873,16386 15911,16265 15946,16143 15978,16020 16006,15896 16032,15772 16055,15647 16074,15522 16090,15396 16103,15269 16114,15143 16120,15016 16124,14889 16125,14762 16122,14635 16117,14508 16108,14382 16096,14255 16081,14129 16063,14004 16041,13879 16017,13754 15990,13630 15959,13507 15926,13384 15889,13263 15849,13142 15807,13023 15761,12904 15713,12787 15662,12671 15608,12556 15551,12442 15491,12330 15428,12220 15363,12111 15295,12004 15224,11898 15151,11794 15075,11693 14997,11593 14917,11495 14834,11399 14748,11305 14660,11213 14570,11123 14478,11036 14384,10951 14288,10868 14189,10788 14089,10710 13987,10635 13883,10562 13777,10492 13669,10425 13560,10360 13449,10298 13337,10239 13223,10182 13108,10129 12992,10078 12874,10030 12756,9985 12636,9943 12515,9904 12393,9868 12271,9835 12147,9805 12023,9778 11898,9754 11773,9734 11648,9716 11521,9702 11395,9690 11268,9682 11141,9677 11014,9675 10888,9676 10836,7302 11022,7300 11208,7303 11393,7310 11579,7322 11764,7339 11948,7360 12132,7386 12315,7416 12498,7451 12679,7490 12860,7534 13039,7583 13217,7635 13394,7692 13570,7754 13743,7820 13915,7890 14086,7964 14254,8043 14420,8125 14585,8212 14747,8303 14906,8398 15064,8496 15219,8599 15371,8705 15521,8816 15667,8929 15811,9047 15952,9168 16090,9292 16225,9420 16357,9551 16485,9685 16610,9823 16732,9963 16850,10107 16964,10253 17075,10402 17182,10554 17285,10708 17385,10865 17480,11025 17572,11186 17659,11350 17743,11516 17822,11684 17897,11854 17968,12026 18035,12199 18097,12374 18155,12551 18208,12729 18257,12908 18302,13088 18342,13270 18378,13452 18409,13635 18436,13819 18458,14003 18475,14188 18488,14374 18496,14559 18500,14745 18499,14931 18493,15116 18483,15302 18468,15487 18449,15672 18425,15856 18397,16040 18364,16222 18326,16404 18284,16585 18238,16765 18187,16944 18132,17121 18072,17297 18008,17472 17940,17644 17867,17815 17790,17985 17709,18152 17624,18317 17535,18480 17442,18641 17345,18799 17244,18955 17139,19108 17030,19259 16918,19407 16802,19552 16683,19694 16560,19834 16433,19970 16304,20103 16171,20233 16035,20359 15895,20482 15753,20602 15608,20717 15460,20830 15309,20938 15156,21043 15000,21144 14842,21241 14681,21335 14518,21424 14353,21509 14186,21590 14017,21667 13846,21739 13673,21808 13498,21872 13322,21931 13145,21987 12966,22038 12787,22084 12606,22126 12424,22164 12241,22197 12057,22225 11873,22249 11688,22268 11503,22283 11318,22293 11132,22299 10946,22300 10760,22296 10575,22288 10389,22275 10205,22258 10020,22236 9836,22209 9653,22178 9471,22142 9289,22102 9109,22058 8930,22009 8752,21955 8575,21897 8400,21835 8227,21768 8055,21698 7885,21623 7717,21543 7551,21460 7387,21373 7226,21281 7066,21186 6909,21086 6755,20983 6603,20876 6454,20765 6307,20651 6164,20533 6024,20411 5886,20286 5752,20158 5621,20026 5493,19891 5368,19753 5248,19612 5130,19468 5016,19322 4906,19172 4800,19020 4697,18865 4598,18707 4504,18548 4413,18386 4326,18221 4243,18055 4165,17887 4090,17716 4020,17544 3954,17371 3893,17195 3836,17019 3783,16841 3735,16661 3691,16481 3651,16299 3616,16117 3586,15933 3560,15749 3539,15565 3522,15380 3510,15194 3503,15009 3500,14823 1625,14828 4678,11756 7751,14810 5875,14815 Z"/>
        <path fill="none" stroke="rgb(52,101,164)" d="M 3500,7300 L 3500,7300 Z"/>
        <path fill="none" stroke="rgb(52,101,164)" d="M 18501,22301 L 18501,22301 Z"/>
       </g>
      </g>
     </g>
    </g>
   </g>
  </g>
 </g>
</svg>