<?xml version="1.0" encoding="UTF-8"?>
<!DOCTYPE svg PUBLIC "-//W3C//DTD SVG 1.1//EN" "http://www.w3.org/Graphics/SVG/1.1/DTD/svg11.dtd">
<svg version="1.2" width="210mm" height="297mm" viewBox="0 0 21000 29700" preserveAspectRatio="xMidYMid" fill-rule="evenodd" stroke-width="28.222" stroke-linejoin="round" xmlns="http://www.w3.org/2000/svg" xmlns:ooo="http://xml.openoffice.org/svg/export" xmlns:xlink="http://www.w3.org/1999/xlink" xmlns:presentation="http://sun.com/xmlns/staroffice/presentation" xmlns:smil="http://www.w3.org/2001/SMIL20/" xmlns:anim="urn:oasis:names:tc:opendocument:xmlns:animation:1.0" xml:space="preserve">
 <defs class="ClipPathGroup">
  <clipPath id="presentation_clip_path" clipPathUnits="userSpaceOnUse">
   <rect x="0" y="0" width="21000" height="29700"/>
  </clipPath>
  <clipPath id="presentation_clip_path_shrink" clipPathUnits="userSpaceOnUse">
   <rect x="21" y="29" width="20958" height="29641"/>
  </clipPath>
 </defs>
 <defs class="TextShapeIndex">
  <g ooo:slide="id1" ooo:id-list="id3"/>
 </defs>
 <defs class="EmbeddedBulletChars">
  <g id="bullet-char-template-57356" transform="scale(0.00048828125,-0.00048828125)">
   <path d="M 580,1141 L 1163,571 580,0 -4,571 580,1141 Z"/>
  </g>
  <g id="bullet-char-template-57354" transform="scale(0.00048828125,-0.00048828125)">
   <path d="M 8,1128 L 1137,1128 1137,0 8,0 8,1128 Z"/>
  </g>
  <g id="bullet-char-template-10146" transform="scale(0.00048828125,-0.00048828125)">
   <path d="M 174,0 L 602,739 174,1481 1456,739 174,0 Z M 1358,739 L 309,1346 659,739 1358,739 Z"/>
  </g>
  <g id="bullet-char-template-10132" transform="scale(0.00048828125,-0.00048828125)">
   <path d="M 2015,739 L 1276,0 717,0 1260,543 174,543 174,936 1260,936 717,1481 1274,1481 2015,739 Z"/>
  </g>
  <g id="bullet-char-template-10007" transform="scale(0.00048828125,-0.00048828125)">
   <path d="M 0,-2 C -7,14 -16,27 -25,37 L 356,567 C 262,823 215,952 215,954 215,979 228,992 255,992 264,992 276,990 289,987 310,991 331,999 354,1012 L 381,999 492,748 772,1049 836,1024 860,1049 C 881,1039 901,1025 922,1006 886,937 835,863 770,784 769,783 710,716 594,584 L 774,223 C 774,196 753,168 711,139 L 727,119 C 717,90 699,76 672,76 641,76 570,178 457,381 L 164,-76 C 142,-110 111,-127 72,-127 30,-127 9,-110 8,-76 1,-67 -2,-52 -2,-32 -2,-23 -1,-13 0,-2 Z"/>
  </g>
  <g id="bullet-char-template-10004" transform="scale(0.00048828125,-0.00048828125)">
   <path d="M 285,-33 C 182,-33 111,30 74,156 52,228 41,333 41,471 41,549 55,616 82,672 116,743 169,778 240,778 293,778 328,747 346,684 L 369,508 C 377,444 397,411 428,410 L 1163,1116 C 1174,1127 1196,1133 1229,1133 1271,1133 1292,1118 1292,1087 L 1292,965 C 1292,929 1282,901 1262,881 L 442,47 C 390,-6 338,-33 285,-33 Z"/>
  </g>
  <g id="bullet-char-template-9679" transform="scale(0.00048828125,-0.00048828125)">
   <path d="M 813,0 C 632,0 489,54 383,161 276,268 223,411 223,592 223,773 276,916 383,1023 489,1130 632,1184 813,1184 992,1184 1136,1130 1245,1023 1353,916 1407,772 1407,592 1407,412 1353,268 1245,161 1136,54 992,0 813,0 Z"/>
  </g>
  <g id="bullet-char-template-8226" transform="scale(0.00048828125,-0.00048828125)">
   <path d="M 346,457 C 273,457 209,483 155,535 101,586 74,649 74,723 74,796 101,859 155,911 209,963 273,989 346,989 419,989 480,963 531,910 582,859 608,796 608,723 608,648 583,586 532,535 482,483 420,457 346,457 Z"/>
  </g>
  <g id="bullet-char-template-8211" transform="scale(0.00048828125,-0.00048828125)">
   <path d="M -4,459 L 1135,459 1135,606 -4,606 -4,459 Z"/>
  </g>
  <g id="bullet-char-template-61548" transform="scale(0.00048828125,-0.00048828125)">
   <path d="M 173,740 C 173,903 231,1043 346,1159 462,1274 601,1332 765,1332 928,1332 1067,1274 1183,1159 1299,1043 1357,903 1357,740 1357,577 1299,437 1183,322 1067,206 928,148 765,148 601,148 462,206 346,322 231,437 173,577 173,740 Z"/>
  </g>
 </defs>
 <defs class="TextEmbeddedBitmaps"/>
 <g>
  <g id="id2" class="Master_Slide">
   <g id="bg-id2" class="Background"/>
   <g id="bo-id2" class="BackgroundObjects"/>
  </g>
 </g>
 <g class="SlideGroup">
  <g>
   <g id="container-id1">
    <g id="id1" class="Slide" clip-path="url(#presentation_clip_path)">
     <g class="Page">
      <g class="com.sun.star.drawing.CustomShape">
       <g id="id3">
        <rect class="BoundingBox" stroke="none" fill="none" x="3497" y="5427" width="15004" height="16878"/>
        <path fill="rgb(0,0,0)" stroke="none" d="M 10954,10238 L 10841,10241 10728,10246 10616,10254 10503,10265 10391,10279 10279,10295 10167,10314 10056,10336 9946,10361 9836,10389 9727,10419 9619,10452 9512,10487 9405,10525 9300,10566 9195,10609 9092,10655 8990,10704 8889,10755 8789,10809 8691,10865 8594,10923 8499,10984 8405,11047 8313,11112 8222,11180 8133,11250 8046,11322 7961,11396 7877,11473 7796,11551 7716,11631 7639,11714 7563,11798 7490,11884 7419,11972 7350,12061 7283,12153 7218,12245 7156,12340 7096,12436 7039,12533 6984,12632 6931,12732 6881,12834 6834,12936 6789,13040 6746,13145 6707,13251 6670,13358 6635,13465 6603,13574 6574,13683 6548,13793 6524,13904 6503,14015 6485,14127 6470,14239 6457,14351 6448,14464 6441,14577 6436,14690 6435,14803 6436,14916 6441,15029 6448,15142 6457,15254 6470,15367 6485,15479 6504,15590 6525,15701 6548,15812 6575,15922 6604,16031 6635,16140 6670,16248 6707,16354 6747,16460 6789,16565 6834,16669 6882,16771 6932,16873 6984,16973 7039,17072 7097,17169 7157,17265 7219,17360 7284,17453 7350,17544 7419,17633 7491,17721 7564,17807 7640,17891 7717,17974 7797,18054 7878,18132 7962,18209 8047,18283 8134,18355 8223,18425 8314,18493 8406,18558 8500,18621 8595,18682 8692,18740 8790,18796 8890,18850 8991,18901 9093,18949 9197,18995 9301,19038 9407,19079 9513,19117 9620,19153 9729,19186 9838,19216 9947,19243 10058,19268 10169,19290 10280,19309 10392,19325 10504,19339 10617,19350 10730,19358 10843,19363 10956,19366 11069,19365 11182,19362 11295,19356 11407,19348 11520,19336 11632,19322 11744,19305 11855,19285 11966,19262 12076,19237 12186,19209 12295,19178 12403,19145 12510,19109 12616,19070 12721,19029 12826,18985 12929,18938 13031,18889 13131,18837 13231,18783 13329,18727 13425,18668 13520,18606 13614,18543 13705,18477 13796,18409 13884,18338 13971,18266 14056,18191 14139,18114 14220,18035 14299,17955 14376,17872 14451,17787 14524,17701 14595,17613 14663,17523 14730,17431 14794,17338 14855,17243 14915,17147 14972,17049 15026,16950 15078,16849 15127,16748 15174,16645 15219,16541 15261,16436 15300,16330 15336,16223 15370,16115 15401,16006 15430,15896 15456,15786 15479,15676 15499,15564 15516,15453 15531,15341 15543,15228 15552,15115 15559,15002 15562,14889 15563,14776 18499,14760 18498,14946 18492,15132 18481,15317 18466,15502 18447,15687 18422,15871 18394,16055 18360,16238 18322,16420 18280,16601 18233,16781 18182,16959 18126,17137 18066,17313 18002,17487 17933,17660 17860,17830 17783,18000 17702,18167 17616,18332 17527,18495 17433,18655 17336,18813 17235,18969 17130,19122 17021,19273 16908,19421 16792,19566 16672,19708 16549,19847 16422,19983 16292,20116 16159,20245 16022,20371 15883,20494 15740,20613 15595,20729 15446,20841 15295,20950 15142,21054 14985,21155 14827,21252 14666,21344 14503,21433 14337,21518 14170,21599 14000,21675 13829,21748 13656,21815 13482,21879 13306,21939 13128,21993 12949,22044 12769,22090 12588,22132 12406,22169 12223,22201 12039,22230 11855,22253 11670,22272 11485,22286 11299,22296 11113,22301 10927,22302 10742,22298 10556,22289 10371,22276 10186,22258 10001,22235 9817,22208 9634,22177 9452,22141 9270,22100 9090,22055 8911,22005 8733,21952 8557,21893 8382,21831 8208,21764 8037,21692 7867,21617 7699,21537 7533,21453 7369,21365 7208,21273 7049,21177 6892,21078 6738,20974 6586,20866 6437,20755 6291,20640 6148,20522 6008,20400 5871,20275 5737,20146 5606,20014 5478,19879 5354,19740 5234,19599 5116,19454 5003,19307 4893,19157 4787,19005 4685,18850 4587,18692 4492,18532 4402,18369 4315,18205 4233,18038 4155,17870 4081,17699 4011,17527 3946,17353 3885,17177 3828,17000 3776,16822 3728,16642 3685,16462 3646,16280 3612,16097 3582,15914 3557,15730 3536,15545 3520,15360 3508,15174 3501,14989 3499,14803 3501,14617 3508,14431 3520,14246 3536,14061 3556,13876 3582,13692 3611,13508 3646,13326 3685,13144 3728,12963 3776,12784 3828,12605 3885,12428 3946,12253 4011,12079 4081,11906 4154,11736 4232,11567 4315,11400 4401,11236 4491,11074 4586,10913 4684,10756 4786,10600 4892,10448 5002,10298 5116,10151 5233,10006 5353,9865 5477,9727 5605,9591 5735,9459 5869,9330 6007,9205 6147,9083 6290,8965 6436,8850 6585,8738 6737,8631 6891,8527 7048,8427 7207,8331 7368,8239 7532,8151 7698,8068 7866,7988 8035,7912 8207,7841 8380,7774 8555,7711 8732,7653 8910,7599 9089,7549 9269,7504 9450,7464 9633,7428 9816,7396 10000,7369 10184,7346 10369,7328 10555,7315 10740,7306 10926,7302 10908,5428 14284,8738 10973,12114 10954,10238 Z M 18499,7302 L 18499,7302 Z M 3498,22303 L 3498,22303 Z"/>
        <path fill="none" stroke="rgb(52,101,164)" d="M 10954,10238 L 10841,10241 10728,10246 10616,10254 10503,10265 10391,10279 10279,10295 10167,10314 10056,10336 9946,10361 9836,10389 9727,10419 9619,10452 9512,10487 9405,10525 9300,10566 9195,10609 9092,10655 8990,10704 8889,10755 8789,10809 8691,10865 8594,10923 8499,10984 8405,11047 8313,11112 8222,11180 8133,11250 8046,11322 7961,11396 7877,11473 7796,11551 7716,11631 7639,11714 7563,11798 7490,11884 7419,11972 7350,12061 7283,12153 7218,12245 7156,12340 7096,12436 7039,12533 6984,12632 6931,12732 6881,12834 6834,12936 6789,13040 6746,13145 6707,13251 6670,13358 6635,13465 6603,13574 6574,13683 6548,13793 6524,13904 6503,14015 6485,14127 6470,14239 6457,14351 6448,14464 6441,14577 6436,14690 6435,14803 6436,14916 6441,15029 6448,15142 6457,15254 6470,15367 6485,15479 6504,15590 6525,15701 6548,15812 6575,15922 6604,16031 6635,16140 6670,16248 6707,16354 6747,16460 6789,16565 6834,16669 6882,16771 6932,16873 6984,16973 7039,17072 7097,17169 7157,17265 7219,17360 7284,17453 7350,17544 7419,17633 7491,17721 7564,17807 7640,17891 7717,17974 7797,18054 7878,18132 7962,18209 8047,18283 8134,18355 8223,18425 8314,18493 8406,18558 8500,18621 8595,18682 8692,18740 8790,18796 8890,18850 8991,18901 9093,18949 9197,18995 9301,19038 9407,19079 9513,19117 9620,19153 9729,19186 9838,19216 9947,19243 10058,19268 10169,19290 10280,19309 10392,19325 10504,19339 10617,19350 10730,19358 10843,19363 10956,19366 11069,19365 11182,19362 11295,19356 11407,19348 11520,19336 11632,19322 11744,19305 11855,19285 11966,19262 12076,19237 12186,19209 12295,19178 12403,19145 12510,19109 12616,19070 12721,19029 12826,18985 12929,18938 13031,18889 13131,18837 13231,18783 13329,18727 13425,18668 13520,18606 13614,18543 13705,18477 13796,18409 13884,18338 13971,18266 14056,18191 14139,18114 14220,18035 14299,17955 14376,17872 14451,17787 14524,17701 14595,17613 14663,17523 14730,17431 14794,17338 14855,17243 14915,17147 14972,17049 15026,16950 15078,16849 15127,16748 15174,16645 15219,16541 15261,16436 15300,16330 15336,16223 15370,16115 15401,16006 15430,15896 15456,15786 15479,15676 15499,15564 15516,15453 15531,15341 15543,15228 15552,15115 15559,15002 15562,14889 15563,14776 18499,14760 18498,14946 18492,15132 18481,15317 18466,15502 18447,15687 18422,15871 18394,16055 18360,16238 18322,16420 18280,16601 18233,16781 18182,16959 18126,17137 18066,17313 18002,17487 17933,17660 17860,17830 17783,18000 17702,18167 17616,18332 17527,18495 17433,18655 17336,18813 17235,18969 17130,19122 17021,19273 16908,19421 16792,19566 16672,19708 16549,19847 16422,19983 16292,20116 16159,20245 16022,20371 15883,20494 15740,20613 15595,20729 15446,20841 15295,20950 15142,21054 14985,21155 14827,21252 14666,21344 14503,21433 14337,21518 14170,21599 14000,21675 13829,21748 13656,21815 13482,21879 13306,21939 13128,21993 12949,22044 12769,22090 12588,22132 12406,22169 12223,22201 12039,22230 11855,22253 11670,22272 11485,22286 11299,22296 11113,22301 10927,22302 10742,22298 10556,22289 10371,22276 10186,22258 10001,22235 9817,22208 9634,22177 9452,22141 9270,22100 9090,22055 8911,22005 8733,21952 8557,21893 8382,21831 8208,21764 8037,21692 7867,21617 7699,21537 7533,21453 7369,21365 7208,21273 7049,21177 6892,21078 6738,20974 6586,20866 6437,20755 6291,20640 6148,20522 6008,20400 5871,20275 5737,20146 5606,20014 5478,19879 5354,19740 5234,19599 5116,19454 5003,19307 4893,19157 4787,19005 4685,18850 4587,18692 4492,18532 4402,18369 4315,18205 4233,18038 4155,17870 4081,17699 4011,17527 3946,17353 3885,17177 3828,17000 3776,16822 3728,16642 3685,16462 3646,16280 3612,16097 3582,15914 3557,15730 3536,15545 3520,15360 3508,15174 3501,14989 3499,14803 3501,14617 3508,14431 3520,14246 3536,14061 3556,13876 3582,13692 3611,13508 3646,13326 3685,13144 3728,12963 3776,12784 3828,12605 3885,12428 3946,12253 4011,12079 4081,11906 4154,11736 4232,11567 4315,11400 4401,11236 4491,11074 4586,10913 4684,10756 4786,10600 4892,10448 5002,10298 5116,10151 5233,10006 5353,9865 5477,9727 5605,9591 5735,9459 5869,9330 6007,9205 6147,9083 6290,8965 6436,8850 6585,8738 6737,8631 6891,8527 7048,8427 7207,8331 7368,8239 7532,8151 7698,8068 7866,7988 8035,7912 8207,7841 8380,7774 8555,7711 8732,7653 8910,7599 9089,7549 9269,7504 9450,7464 9633,7428 9816,7396 10000,7369 10184,7346 10369,7328 10555,7315 10740,7306 10926,7302 10908,5428 14284,8738 10973,12114 10954,10238 Z"/>
        <path fill="none" stroke="rgb(52,101,164)" d="M 18499,7302 L 18499,7302 Z"/>
        <path fill="none" stroke="rgb(52,101,164)" d="M 3498,22303 L 3498,22303 Z"/>
       </g>
      </g>
     </g>
    </g>
   </g>
  </g>
 </g>
</svg>