<svg version="1" xmlns="http://www.w3.org/2000/svg" width="946.667" height="946.667" viewBox="0 0 710.000000 710.000000"><path d="M237 118.5V237H0v15h237v221H0v15h237v222h15V488h221v222h15V488h222v-15H488V252h222v-15H488V0h-15v237H252V0h-15v118.5zm236 244V473H252V252h221v110.5z"/><path d="M311.6 309.6c-3.5 3.5-2.1 5.4 20.4 27.9l22 22-22 22c-23 23.1-24 24.5-20 28.5s5.4 3 28.5-20l22-22 22 22c22.5 22.5 24.4 23.9 27.9 20.4 4-3.9 2.6-5.9-20.1-28.6L370.5 360l21.8-21.8c18.7-18.8 21.7-22.1 21.7-24.8 0-3.8-1.6-5.4-5.4-5.4-2.6 0-6.1 3.1-24.8 21.7L362 351.5l-21.8-21.8c-22.7-22.7-24.7-24.1-28.6-20.1zM67.6 65.6C64.1 69.1 65.5 71 88 93.5l22 22-22 22C65 160.6 64 162 68 166s5.4 3 28.5-20l22-22 22 22c22.5 22.5 24.4 23.9 27.9 20.4 4-3.9 2.6-5.9-20.1-28.6L126.5 116l21.8-21.8C167 75.4 170 72.1 170 69.4c0-3.8-1.6-5.4-5.4-5.4-2.6 0-6.1 3.1-24.8 21.7L118 107.5 96.2 85.7C73.5 63 71.5 61.6 67.6 65.6zM346 66.3c-9 3-14.6 6.6-21.2 13.2-10.7 10.8-15.4 23.9-14.5 40 2.2 38.9 42.5 61.3 77.9 43.4 6.9-3.5 15.9-12.1 20-19 7.2-12.3 9.2-30.3 4.9-44-5.2-16.6-19.2-30.1-35.6-34.4-9-2.3-23.5-2-31.5.8zm23.3 9.7c22.5 3.6 37.3 24.1 33.9 46.4-2.2 14-10.3 24.9-23 30.9-6.2 3-7.5 3.2-17.2 3.2-13 0-19.4-2.2-27.5-9.7-10.1-9.2-14-18.8-13.3-32.8 1-21.9 16.7-37.2 39.8-38.9.8 0 4.1.3 7.3.9zM584.1 65.6c-16 4.3-30.1 18-35.2 34.3-2.2 7.4-2.8 21.4-1 29.1 4.2 18.5 18.9 33.5 37.8 38.4 17.1 4.5 36.3-.1 49-11.7 10.8-9.9 16.1-21.1 17-36.2 1.5-25.4-13.4-46.8-37.6-53.9-6.8-2-22.6-2-30 0zm28.4 11.9c10.3 2.9 18.9 10.8 24.2 22.1 2.5 5.3 2.8 7 2.8 16.9 0 10.4-.2 11.4-3.2 17.5-7.2 14.6-20.7 23-36.7 23-12.1 0-21.9-4-29.9-12.3-15.3-15.7-15-42.2.6-57.5 11-10.8 26-14.2 42.2-9.7zM102 310.3c-9 3-14.6 6.6-21.2 13.2-10.7 10.8-15.4 23.9-14.5 40 2.2 38.9 42.5 61.3 77.9 43.4 6.9-3.5 15.9-12.1 20-19 7.2-12.3 9.2-30.3 4.9-44-5.2-16.6-19.2-30.1-35.6-34.4-9-2.3-23.5-2-31.5.8zm23.3 9.7c22.5 3.6 37.3 24.1 33.9 46.4-2.2 14-10.3 24.9-23 30.9-6.2 3-7.5 3.2-17.2 3.2-13 0-19.4-2.2-27.5-9.7-10.1-9.2-14-18.8-13.3-32.8 1-21.9 16.7-37.2 39.8-38.9.8 0 4.1.3 7.3.9zM548.2 309.2c-.7.7-1.2 2.6-1.2 4.2 0 2.7 3 6 21.7 24.8l21.8 21.8-21.8 21.8c-17.1 17.1-21.7 22.3-21.7 24.3 0 3.4 3.2 6.3 6.2 5.6 1.3-.4 12-10.3 23.8-22.2l21.5-21.5 22 22c23.1 23 24.5 24 28.5 20s3-5.4-20-28.5l-22-22 22-22c14.7-14.7 22-22.7 22-24.1 0-1.1-.8-2.8-1.8-3.7-4.1-3.8-5.7-2.6-28.4 20L599 351.5l-21.8-21.8C558.5 311.1 555 308 552.4 308c-1.7 0-3.5.5-4.2 1.2zM67 545.9c-2.5 4.7-1.5 6.1 21 28.6l22 22-22 22c-17.8 17.8-22 22.5-22 24.7 0 2.8 3.1 5.8 5.9 5.8.8 0 11.5-10 23.8-22.2l22.3-22.3 21.8 21.7c11.9 11.9 22.6 21.9 23.8 22.2 2.7.8 7.4-2.8 7.4-5.7 0-1.4-7.2-9.3-22.2-24.4L126.6 596l22.2-22.3c12.2-12.3 22.2-23 22.2-23.8 0-3-3-5.9-6.3-5.9-2.9-.1-5.4 2.2-24.2 21.5-11.5 11.8-21.5 21.5-22 21.5-.6 0-10.7-9.7-22.5-21.5C76.9 546.4 74.2 544 71.3 544c-2.2 0-3.6.6-4.3 1.9zM311 545.9c-2.5 4.7-1.5 6.1 21 28.6l22 22-22 22c-17.8 17.8-22 22.5-22 24.7 0 2.8 3.1 5.8 5.9 5.8.8 0 11.5-10 23.8-22.2l22.3-22.3 21.8 21.7c11.9 11.9 22.6 21.9 23.8 22.2 2.7.8 7.4-2.8 7.4-5.7 0-1.4-7.2-9.3-22.2-24.4L370.6 596l22.2-22.3c12.2-12.3 22.2-23 22.2-23.8 0-3-3-5.9-6.3-5.9-2.9-.1-5.4 2.2-24.2 21.5-11.5 11.8-21.5 21.5-22 21.5-.6 0-10.7-9.7-22.5-21.5-19.1-19.1-21.8-21.5-24.7-21.5-2.2 0-3.6.6-4.3 1.9zM584.1 545.6c-18.3 4.9-33.9 22.4-37.1 41.5-6.4 37.9 25.6 68.9 63.3 61.5 10.3-2 18.8-6.6 26.7-14.6 10.9-10.8 15-21.2 15-37.5 0-15.2-4.8-26.9-15.2-37.4-10.8-11-21.4-15.2-37.9-15-5.2 0-11.8.7-14.8 1.5zm33.2 14.1c12.7 6 20.9 17.3 22.6 30.7 2.8 23.7-11.5 43.5-33.9 46.8-13.8 2-26.7-2-35.8-11.1-6-6-8.6-10.6-10.8-19.4-2-7.7-1.3-18.1 1.7-26.4 2.6-6.8 12.1-17.1 18.5-19.8 9.5-4.2 10.9-4.5 20.9-4.3 8.9.3 10.7.7 16.8 3.5z"/></svg>