<?xml version="1.0" encoding="UTF-8"?>
<!DOCTYPE svg PUBLIC "-//W3C//DTD SVG 1.1//EN" "http://www.w3.org/Graphics/SVG/1.1/DTD/svg11.dtd">
<svg version="1.2" viewBox="-1500 3000 30000 22000">
<g>
    <path fill="rgb(255,255,255)" stroke="none" d="M 10550,6000 C 15341,6000 19000,9659 19000,14450 19000,19241 15341,22900 10550,22900 5759,22900 2100,19241 2100,14450 2100,9659 5759,6000 10550,6000 Z M 2100,6000 L 2100,6000 Z M 19001,22901 L 19001,22901 Z"/>
    <path class="noughtPath" fill="none" stroke-width="2117" stroke-linejoin="round" d="M 10550,6000 C 15341,6000 19000,9659 19000,14450 19000,19241 15341,22900 10550,22900 5759,22900 2100,19241 2100,14450 2100,9659 5759,6000 10550,6000 Z"/>
</g>
</svg>